<?xml version="1.0" standalone="no"?>
<!DOCTYPE svg PUBLIC "-//W3C//DTD SVG 20010904//EN"
 "http://www.w3.org/TR/2001/REC-SVG-20010904/DTD/svg10.dtd">
<svg version="1.0" xmlns="http://www.w3.org/2000/svg"
 width="247.000000pt" height="204.000000pt" viewBox="0 0 247.000000 204.000000"
 preserveAspectRatio="xMidYMid meet">

<g transform="translate(0.000000,204.000000) scale(0.100000,-0.100000)"
fill="#000000" stroke="none">
<path d="M880 1280 c-12 -7 -8 -10 15 -10 l30 -1 -25 -14 c-14 -8 -51 -14 -83
-15 -67 0 -94 -12 -107 -44 -10 -28 -75 -42 -114 -25 -20 9 -29 9 -41 -1 -12
-10 -13 -15 -4 -21 12 -7 -17 -12 -133 -24 -31 -3 -74 -11 -95 -17 -34 -12
-38 -17 -41 -51 -4 -49 19 -87 54 -87 34 0 146 29 159 41 16 16 52 10 58 -10
4 -16 14 -19 68 -18 35 0 70 4 76 10 9 6 16 1 25 -18 10 -23 10 -29 -5 -40 -9
-6 -14 -14 -12 -17 3 -3 -2 -11 -11 -19 -14 -11 -16 -10 -13 6 2 11 1 22 -1
24 -8 6 -113 -19 -127 -31 -16 -13 -17 -32 -1 -22 7 4 8 3 4 -4 -4 -7 -16 -12
-26 -12 -20 0 -83 -49 -64 -50 7 0 14 7 18 15 8 22 21 18 34 -10 18 -39 1 -62
-40 -56 -4 0 -5 -6 -2 -13 5 -12 16 -11 71 5 46 13 70 15 79 8 7 -6 14 -6 18
-1 8 14 75 20 79 7 2 -6 9 -5 20 3 20 17 127 29 127 14 0 -6 -20 -14 -45 -18
-29 -4 -45 -11 -45 -21 0 -8 -5 -11 -10 -8 -6 4 -7 11 -4 17 4 6 -3 5 -16 -2
-12 -7 -19 -17 -16 -26 3 -9 -1 -14 -14 -14 -11 0 -20 7 -20 15 0 8 5 15 11
15 5 0 7 4 4 10 -4 6 -18 4 -38 -6 l-31 -17 27 -22 26 -23 -22 -15 c-16 -11
-19 -18 -11 -26 8 -8 46 -3 146 19 125 28 137 29 164 15 46 -24 84 -21 224 18
30 8 141 38 245 67 414 111 470 128 463 135 -4 5 -211 -50 -658 -175 -58 -16
-124 -33 -148 -39 l-42 -9 29 34 c17 19 35 53 42 76 14 55 6 216 -15 283 -46
147 -168 259 -236 215z m-136 -116 c3 -8 2 -12 -4 -9 -6 3 -10 10 -10 16 0 14
7 11 14 -7z m-49 -29 c-30 -23 -66 -30 -75 -14 -13 20 -6 24 47 27 45 2 47 1
28 -13z m101 -10 c19 -18 49 -19 126 -3 42 9 61 9 69 1 7 -7 21 -8 40 -3 32 9
40 1 53 -53 5 -20 2 -33 -10 -45 -10 -9 -20 -17 -23 -16 -12 2 -51 -29 -51
-41 0 -13 -67 -31 -77 -21 -3 3 -14 1 -24 -4 -15 -9 -20 -2 -39 54 -23 70 -49
114 -50 84 0 -9 -10 -20 -22 -24 -12 -3 -30 -16 -40 -28 -9 -11 -17 -16 -18
-10 0 5 5 15 12 22 7 7 8 12 3 12 -18 -1 -123 -28 -134 -34 -14 -9 -51 11 -51
27 0 15 56 41 69 33 5 -4 12 -2 15 3 5 7 24 13 81 26 6 1 20 3 32 3 15 2 21 7
17 17 -4 8 -3 15 1 15 3 0 13 -7 21 -15z m-202 -27 c-3 -4 -14 -8 -25 -8 -11
0 -29 -5 -40 -10 -16 -9 -19 -7 -19 14 0 21 5 25 38 28 36 3 56 -8 46 -24z
m-101 -12 c3 -11 -88 -38 -116 -34 -39 6 -28 26 20 36 55 12 93 11 96 -2z
m-163 -16 c0 -5 -4 -10 -10 -10 -5 0 -10 5 -10 10 0 6 5 10 10 10 6 0 10 -4
10 -10z m288 -169 c10 -6 7 -10 -12 -13 -25 -5 -33 1 -19 15 8 9 15 9 31 -2z
m392 -21 c0 -5 -4 -10 -10 -10 -5 0 -10 5 -10 10 0 6 5 10 10 10 6 0 10 -4 10
-10z m-243 -27 c-9 -2 -15 -8 -12 -13 3 -5 1 -11 -4 -15 -6 -3 -8 -12 -4 -20
4 -11 1 -13 -11 -9 -12 5 -13 10 -5 25 13 26 1 24 -22 -3 -12 -16 -18 -18 -19
-9 0 26 32 51 64 50 17 -1 23 -3 13 -6z m-136 -36 c-10 -9 -11 -8 -5 6 3 10 9
15 12 12 3 -3 0 -11 -7 -18z"/>
<path d="M685 1083 c-11 -2 -27 -7 -35 -10 -8 -3 -19 -5 -23 -4 -4 1 -18 -6
-30 -15 -25 -18 -28 -19 76 10 70 20 79 34 12 19z"/>
<path d="M2092 1073 c1 -4 -3 -18 -10 -30 -7 -13 -9 -23 -4 -23 14 0 33 48 21
55 -5 4 -8 3 -7 -2z"/>
</g>
</svg>
