<?xml version="1.0" standalone="no"?>
<!DOCTYPE svg PUBLIC "-//W3C//DTD SVG 20010904//EN"
 "http://www.w3.org/TR/2001/REC-SVG-20010904/DTD/svg10.dtd">
<svg version="1.0" xmlns="http://www.w3.org/2000/svg"
 width="1000.000000pt" height="799.000000pt" viewBox="0 0 1000.000000 799.000000"
 preserveAspectRatio="xMidYMid meet">

<g transform="translate(0.000000,799.000000) scale(0.100000,-0.100000)"
fill="#000000" stroke="none">
<path d="M9128 7953 c7 -3 16 -2 19 1 4 3 -2 6 -13 5 -11 0 -14 -3 -6 -6z"/>
<path d="M9368 7953 c6 -2 18 -2 25 0 6 3 1 5 -13 5 -14 0 -19 -2 -12 -5z"/>
<path d="M9050 7937 c-39 -18 -74 -46 -68 -53 5 -5 54 21 68 36 3 3 16 11 30
17 14 6 18 12 10 12 -8 -1 -26 -6 -40 -12z"/>
<path d="M9133 7940 c-48 -11 -86 -39 -75 -53 6 -7 10 -14 9 -17 -3 -15 21
-35 43 -37 144 -10 223 -1 265 32 17 12 18 16 5 24 -12 8 -10 12 10 19 27 11
27 10 -39 31 -38 12 -169 13 -218 1z m62 -40 c-27 -12 -35 -12 -35 0 0 6 12
10 28 9 24 0 25 -1 7 -9z"/>
<path d="M9475 7862 c-16 -9 -32 -18 -35 -20 -2 -2 2 -7 10 -12 8 -5 12 -12 8
-15 -3 -4 -15 -1 -26 6 -16 10 -29 10 -62 0 -116 -35 -287 -32 -369 7 -50 23
-66 8 -68 -64 -1 -32 -6 -88 -12 -124 -5 -36 -17 -114 -26 -175 -8 -60 -20
-135 -25 -166 -6 -30 -10 -72 -10 -93 0 -21 -7 -78 -16 -128 -15 -77 -15 -112
-5 -266 6 -97 11 -258 11 -357 0 -128 4 -185 12 -193 9 -9 8 -12 -5 -12 -9 0
-21 8 -26 18 -9 15 -10 15 -11 -5 0 -12 11 -34 24 -50 23 -27 24 -37 25 -163
2 -252 18 -642 27 -672 13 -43 -31 -8 -58 46 -14 26 -16 28 -21 10 -4 -10 -7
-36 -9 -56 -3 -45 -5 -47 -18 -13 -6 16 -6 34 0 50 11 29 8 31 -14 9 -9 -8
-16 -11 -16 -6 0 11 40 48 49 44 3 -2 8 5 10 15 5 25 -57 -24 -86 -68 -13 -19
-26 -37 -30 -41 -5 -4 -30 -26 -57 -50 -87 -76 -108 -164 -61 -252 28 -52 31
-72 13 -79 -22 -8 51 -75 135 -125 42 -25 72 -49 66 -52 -5 -4 -9 -11 -8 -16
1 -5 1 -16 -1 -24 -1 -11 -4 -9 -10 5 -6 12 -9 -98 -7 -287 1 -223 -1 -301 -9
-287 -9 19 -12 19 -24 4 -27 -32 -74 -58 -173 -96 -56 -22 -107 -39 -113 -39
-14 0 -21 77 -30 323 -5 136 -9 174 -18 162 -7 -10 -9 -44 -4 -103 3 -48 7
-188 7 -311 l1 -224 -33 -32 c-31 -30 -38 -32 -80 -28 -50 6 -49 4 -66 93 -13
70 -44 517 -36 529 3 5 -3 12 -12 14 -10 3 -29 8 -41 12 -21 6 -23 5 -13 -13
7 -13 11 -108 11 -265 0 -300 -7 -347 -40 -279 -8 15 -15 28 -16 30 -1 2 -10
-1 -21 -7 -10 -5 -50 -22 -88 -36 -39 -15 -104 -51 -144 -81 -41 -30 -77 -54
-81 -54 -4 0 -12 60 -19 133 -7 72 -15 159 -18 192 l-5 61 64 28 c36 15 78 41
94 57 26 27 30 39 35 117 4 64 2 96 -9 122 -17 43 -51 81 -65 73 -6 -3 -7 -1
-3 5 6 10 -66 72 -84 72 -3 0 -5 -15 -3 -32 2 -29 1 -27 -12 11 -8 25 -27 58
-42 74 -31 31 -83 63 -83 49 0 -5 11 -14 25 -20 14 -6 25 -17 24 -24 0 -10 -2
-10 -6 0 -2 6 -9 12 -14 12 -5 0 -4 -11 3 -24 6 -14 7 -33 3 -43 -5 -14 -11
-7 -23 32 -11 35 -17 44 -20 30 -11 -52 -21 -28 -26 67 -10 157 -28 567 -31
708 -1 69 -8 175 -14 235 -14 135 -31 428 -31 523 0 40 -10 114 -23 169 -13
54 -34 152 -47 218 -12 66 -39 192 -61 280 -21 88 -43 187 -50 220 -7 33 -14
54 -16 47 -4 -10 -8 -10 -19 -1 -12 9 -17 9 -27 -3 -29 -35 -98 -63 -182 -73
-77 -10 -107 -15 -118 -22 -6 -3 -7 -1 -3 5 5 9 -6 12 -38 12 -57 0 -146 19
-146 31 0 5 -8 9 -18 9 -11 0 -24 10 -31 23 -11 21 -11 20 -6 -7 4 -19 1 -32
-7 -37 -10 -6 -10 -15 -1 -39 6 -16 8 -32 3 -35 -4 -2 -10 -42 -13 -87 -7
-119 -25 -328 -44 -518 -20 -203 -21 -241 -5 -356 12 -88 30 -313 38 -462 2
-40 8 -89 13 -109 13 -45 8 -52 -20 -27 l-22 19 13 -25 c7 -14 30 -41 52 -61
32 -31 38 -42 36 -75 l-1 -39 -4 37 c-2 20 -11 42 -19 48 -12 11 -14 1 -14
-66 0 -105 48 -712 59 -746 8 -26 8 -27 -11 -17 -11 6 -28 28 -37 50 -20 45
-31 41 -31 -10 0 -20 -5 -43 -10 -51 -7 -11 -10 -1 -10 35 0 28 6 60 15 71 8
12 12 24 8 27 -10 11 -43 -13 -73 -55 -32 -44 -40 -102 -20 -153 7 -19 7 -24
-1 -19 -9 5 -10 -4 -5 -32 4 -28 4 -34 -3 -23 -6 9 -12 52 -13 96 l-3 80 -38
-29 c-89 -71 -119 -193 -66 -275 24 -37 29 -90 7 -77 -7 4 -7 0 0 -12 21 -38
89 -92 169 -135 46 -24 77 -46 70 -49 -8 -3 -14 -34 -17 -85 -8 -127 -3 -435
8 -487 6 -31 6 -48 0 -48 -6 0 -12 9 -15 20 -5 19 -7 18 -38 -9 -18 -15 -66
-41 -106 -56 -41 -15 -113 -43 -160 -61 -47 -19 -101 -34 -120 -34 -31 0 -358
-118 -428 -155 -19 -10 -34 -29 -44 -57 -13 -38 -16 -39 -16 -15 -1 15 -2 27
-4 27 -1 0 -61 -22 -132 -50 -71 -27 -133 -46 -136 -42 -4 4 -17 73 -29 155
-12 81 -26 162 -31 180 -13 46 -13 46 29 65 62 28 109 61 128 90 28 42 30 210
3 272 -25 56 -79 113 -144 150 -27 16 -63 43 -80 60 -16 18 -46 40 -66 51
l-37 18 6 -21 c3 -12 16 -38 29 -56 13 -19 23 -44 23 -55 0 -26 -12 -14 -25
25 -14 43 -31 45 -40 6 -6 -26 -11 -3 -26 112 -43 354 -79 718 -73 748 4 21 3
32 -5 32 -6 0 -11 16 -11 38 0 20 -9 87 -19 147 -23 127 -48 337 -57 475 -4
68 -19 138 -50 245 -23 83 -55 197 -69 254 -14 57 -46 163 -70 235 -23 72 -49
157 -56 189 -10 45 -16 57 -31 57 -12 0 -17 5 -13 13 4 6 -8 -5 -27 -25 -77
-86 -279 -128 -459 -96 -39 7 -46 15 -45 44 1 22 7 29 31 36 36 10 67 2 46
-11 -10 -7 -7 -13 14 -27 56 -37 243 -11 303 42 21 19 24 26 13 33 -20 13 2
22 38 16 18 -3 31 -1 31 5 0 5 -4 10 -10 10 -5 0 -10 6 -10 14 0 11 5 12 24 3
14 -7 24 -15 23 -18 -1 -4 3 -7 8 -8 6 -1 10 4 10 11 0 17 -54 46 -95 51 -19
2 -26 2 -16 0 17 -4 17 -6 -5 -17 -14 -7 -35 -9 -49 -6 -14 4 -52 5 -85 3 -72
-5 -69 3 6 16 51 10 50 10 -25 6 -44 -3 -82 -9 -85 -13 -3 -4 -15 -9 -26 -9
-37 -2 -132 -43 -151 -65 -20 -23 -3 -17 29 10 9 8 29 16 45 18 15 1 38 5 52
9 22 5 22 4 -5 -11 -16 -9 -40 -25 -51 -36 -12 -11 -28 -18 -35 -17 -22 4 -49
-12 -42 -25 3 -6 1 -6 -8 2 -20 18 -31 15 -24 -8 4 -13 1 -22 -9 -26 -21 -8
-21 -58 -1 -74 9 -7 13 -20 10 -29 -3 -8 -10 -201 -14 -428 -7 -331 -6 -424 4
-466 23 -90 58 -348 89 -644 2 -18 9 -40 16 -48 7 -9 8 -15 2 -15 -6 0 -22 14
-36 31 -14 17 -26 27 -26 24 0 -14 53 -105 61 -105 17 0 38 -59 48 -136 6 -43
29 -216 51 -384 22 -168 43 -317 46 -332 5 -23 3 -26 -17 -21 -15 4 -32 28
-54 75 l-32 69 -31 -35 c-39 -45 -59 -82 -65 -125 -3 -18 -9 -36 -13 -39 -3
-4 -4 9 -2 28 l5 34 -41 -45 c-60 -66 -86 -125 -86 -193 0 -70 20 -119 68
-170 24 -25 30 -37 18 -32 -16 5 -17 4 -6 -9 7 -9 10 -19 6 -22 -4 -4 -11 -1
-16 7 -6 8 -10 10 -10 4 0 -23 85 -88 166 -125 45 -22 87 -39 93 -39 6 0 11
-4 11 -10 0 -5 -6 -10 -12 -10 -9 0 -8 -3 2 -10 12 -7 12 -12 2 -22 -10 -10
-15 -10 -23 2 -7 11 -8 6 -3 -15 4 -16 11 -32 15 -35 5 -3 8 -33 8 -65 -2
-128 5 -235 14 -235 5 0 8 -21 5 -50 -3 -27 -3 -52 0 -55 3 -3 7 -18 8 -34 4
-31 -13 -52 -25 -32 -5 8 -21 4 -52 -14 -25 -13 -92 -42 -150 -64 -57 -22
-144 -55 -192 -75 -60 -23 -90 -31 -92 -23 -6 15 -62 337 -77 440 -10 70 -13
76 -26 63 -16 -16 -25 -59 -10 -50 4 3 8 -6 8 -20 0 -14 13 -121 30 -239 16
-118 30 -250 31 -293 2 -89 -9 -105 -83 -124 -59 -17 -69 -11 -94 57 -23 62
-33 108 -80 363 -14 80 -29 157 -34 171 -5 17 -4 31 2 37 7 7 -2 14 -30 22
-23 6 -48 17 -57 26 -8 8 -15 11 -15 6 0 -5 7 -15 15 -22 8 -7 19 -29 25 -49
16 -63 61 -432 58 -483 -3 -48 -20 -67 -26 -28 -2 11 -8 20 -13 20 -20 0 -132
-62 -198 -111 -42 -30 -109 -65 -168 -88 -54 -21 -106 -42 -115 -46 -13 -5
-19 2 -28 37 -29 110 -49 198 -61 256 -7 36 -19 66 -27 71 -12 7 -4 17 41 45
62 40 101 77 123 118 19 37 13 227 -9 280 -23 55 -98 122 -180 163 -40 20 -90
49 -112 65 -22 15 -50 31 -62 35 -18 5 -21 3 -16 -16 4 -12 15 -31 25 -41 23
-23 38 -61 37 -91 -1 -16 -4 -12 -11 12 -5 19 -18 45 -28 58 l-18 23 -7 -37
c-4 -21 -9 -42 -13 -47 -3 -6 -23 80 -43 190 -21 109 -57 300 -80 424 -45 239
-47 253 -35 315 5 28 4 36 -3 25 -5 -8 -12 -12 -14 -10 -24 28 -147 610 -147
695 0 16 -22 87 -49 159 -112 297 -141 378 -141 387 0 6 -11 38 -24 72 -30 75
-43 110 -44 117 -1 3 -12 31 -26 62 -14 32 -26 72 -27 90 -2 48 -18 95 -34
102 -9 3 -27 -11 -47 -36 -38 -49 -139 -99 -238 -119 -36 -7 -67 -16 -70 -20
-7 -9 -163 12 -175 23 -7 7 20 8 80 5 80 -5 84 -5 35 4 -75 14 -121 13 -130
-1 -4 -7 -13 -9 -20 -5 -9 6 -6 12 11 22 24 14 24 14 -8 10 -22 -2 -34 1 -38
11 -3 8 -3 17 0 20 3 3 5 0 5 -6 0 -7 5 -12 10 -12 6 0 10 7 10 15 0 17 58 73
99 94 17 9 11 1 -17 -24 -45 -39 -53 -56 -23 -48 10 3 22 -1 26 -8 5 -8 4 -10
-3 -5 -22 13 -12 -13 10 -28 17 -12 49 -16 133 -16 70 0 105 4 96 9 -15 10
-16 10 64 26 14 3 25 11 25 17 0 6 8 20 17 30 15 16 15 21 3 28 -12 8 -12 10
2 15 21 8 19 45 -2 45 -13 0 -13 1 0 10 11 7 17 4 24 -10 9 -20 26 -28 26 -12
0 4 12 9 27 10 21 2 24 -1 15 -10 -14 -14 -16 -58 -4 -58 5 0 15 11 22 25 17
31 3 50 -49 65 -54 16 -180 22 -226 11 l-40 -10 40 0 c68 1 82 -3 40 -12 -24
-4 -53 -4 -72 2 -25 8 -46 7 -88 -6 -30 -8 -55 -19 -55 -24 0 -4 -17 -12 -37
-17 -30 -7 -38 -14 -37 -31 0 -12 -5 -24 -12 -27 -8 -3 -11 0 -7 10 8 21 -6
17 -28 -8 -10 -13 -18 -35 -19 -49 0 -15 -7 -30 -16 -33 -24 -9 -10 -66 23
-93 22 -17 23 -21 8 -17 -19 5 -20 0 -17 -143 1 -81 6 -191 12 -243 5 -52 12
-185 16 -295 5 -170 10 -211 29 -270 13 -38 35 -122 48 -185 14 -63 42 -187
62 -275 20 -88 39 -173 42 -190 2 -16 12 -38 20 -47 20 -22 5 -23 -25 -2 -29
20 -28 15 8 -43 25 -41 43 -109 114 -438 46 -215 88 -403 92 -419 7 -29 7 -30
-13 -10 -11 10 -25 28 -31 39 -9 17 -11 14 -22 -25 -17 -67 -21 -71 -15 -16 3
27 10 54 15 61 12 15 2 47 -13 42 -19 -6 -76 -97 -87 -138 -6 -22 -8 -56 -5
-77 5 -33 4 -34 -6 -12 -6 14 -8 43 -6 64 l6 40 -25 -30 c-81 -98 -109 -175
-93 -259 11 -57 22 -78 71 -131 32 -35 36 -42 19 -39 -19 3 -20 1 -10 -17 8
-15 8 -19 0 -14 -6 4 -11 3 -11 -3 0 -32 176 -133 281 -161 35 -10 40 -14 26
-21 -12 -7 -17 -23 -17 -53 0 -42 16 -147 26 -176 9 -24 13 -92 7 -140 l-5
-45 -71 -27 c-67 -26 -73 -27 -85 -11 -11 16 -15 16 -55 1 -39 -15 -513 -207
-566 -229 -22 -9 -22 -11 -7 -32 9 -12 23 -35 31 -52 l16 -30 -21 28 c-12 15
-27 24 -32 21 -7 -4 -8 -2 -4 4 3 6 -8 34 -25 62 -29 47 -35 51 -60 46 -50
-10 -99 -35 -99 -50 0 -18 -11 -21 -26 -6 -12 12 -44 3 -44 -13 0 -5 11 -25
25 -43 26 -34 26 -34 6 -55 -15 -16 -720 -311 -804 -336 -9 -3 -17 -7 -17 -9
0 -3 64 -103 257 -396 35 -53 66 -104 69 -112 13 -33 -5 -13 -46 52 -104 166
-131 201 -148 195 -14 -4 -15 -3 -2 6 15 10 7 26 -13 26 -7 0 -11 9 -10 20 1
10 -7 30 -18 43 -13 17 -19 20 -19 9 0 -8 -7 -18 -16 -21 -23 -9 -34 -7 -34 5
0 5 5 7 10 4 17 -11 23 25 7 43 -8 9 -20 34 -27 55 -10 31 -14 36 -26 26 -8
-6 -14 -8 -14 -5 0 4 -7 0 -17 -9 -15 -16 -17 -16 -26 2 -14 25 -14 26 -26 19
-6 -4 22 -55 68 -124 104 -156 162 -247 220 -342 26 -44 51 -77 54 -73 7 6 11
-20 7 -46 -1 -10 3 -9 16 4 10 9 30 22 46 27 18 7 28 17 29 31 1 19 3 17 14
-8 22 -52 28 -78 16 -71 -6 4 -27 0 -46 -10 -28 -13 -38 -14 -50 -4 -19 16
-19 11 0 -33 9 -23 23 -37 37 -40 20 -4 19 -4 -5 -6 -25 -1 -31 5 -48 47 -32
75 -55 115 -186 319 -158 249 -155 244 -159 240 -3 -2 3 -20 11 -40 9 -22 11
-38 5 -42 -10 -6 22 -79 40 -90 6 -4 8 -10 5 -15 -9 -15 298 -505 317 -505 6
0 19 -22 28 -49 9 -28 19 -45 23 -39 4 6 25 14 48 18 23 4 45 15 52 26 8 12
23 19 44 19 30 0 166 43 188 60 6 4 35 17 67 28 31 12 78 31 105 43 166 74
211 85 373 89 l84 3 26 -33 c59 -78 44 -75 150 -32 52 21 165 71 250 110 179
81 420 184 635 270 244 97 468 189 505 208 62 31 123 76 206 154 80 75 81 76
310 172 209 88 241 99 369 122 212 39 312 79 431 175 74 60 81 63 294 149 223
89 262 100 390 113 134 14 252 41 348 81 116 48 161 77 242 154 41 39 89 78
105 87 30 15 493 203 835 339 96 38 189 76 205 83 135 61 379 149 434 157 36
5 113 15 171 23 156 20 193 30 296 79 69 33 109 60 156 106 84 82 101 93 194
130 43 18 99 41 124 52 101 46 178 70 292 89 170 28 276 70 352 138 61 55 77
63 257 134 206 81 219 85 357 98 63 6 148 19 190 30 110 27 235 92 278 144 34
42 44 62 24 50 -8 -5 -9 29 -5 105 5 83 3 110 -5 105 -9 -5 -9 -2 -3 11 11 22
-8 89 -21 77 -5 -5 3 11 17 34 39 62 43 108 15 163 -28 54 -48 63 -48 23 0
-16 -7 -38 -15 -49 -13 -17 -14 -13 -16 46 0 36 -2 81 -4 100 -17 160 -21 292
-10 310 5 9 4 11 -3 6 -9 -5 -12 26 -12 118 0 79 -4 126 -11 128 -5 2 33 28
87 58 110 63 129 84 120 135 -5 24 -2 42 10 60 20 31 20 104 0 143 -17 33 -77
88 -112 104 -13 6 -24 15 -24 19 0 13 -59 77 -91 100 -23 16 -29 17 -29 5 0
-8 7 -16 16 -18 18 -3 31 -78 14 -78 -6 0 -10 7 -10 16 0 8 -5 25 -11 36 -10
19 -12 18 -28 -18 -10 -22 -25 -45 -34 -53 -19 -15 -22 -8 -7 20 6 10 7 19 2
19 -5 0 -5 25 0 58 4 31 7 204 6 385 -1 282 -4 327 -17 327 -11 0 -10 5 6 23
20 21 43 60 43 71 0 3 -6 3 -12 1 -10 -4 -12 73 -10 367 2 359 1 379 -23 518
-14 80 -34 208 -45 285 -36 244 -56 340 -71 337 -9 -2 -7 4 5 17 16 18 17 25
8 46 -14 29 -18 30 -57 7z m-75 -82 c0 -5 -7 -10 -15 -10 -8 0 -15 5 -15 10 0
6 7 10 15 10 8 0 15 -4 15 -10z m-35 -11 c10 -15 4 -18 -47 -23 -59 -6 -71 6
-21 21 49 15 60 15 68 2z m-186 -18 c23 -14 -49 -24 -82 -12 -15 6 -27 13 -27
16 0 9 94 5 109 -4z m-2009 -669 c0 -7 -37 -25 -77 -37 -12 -3 -24 -1 -28 5
-3 6 -11 8 -16 5 -5 -4 -9 -2 -9 4 0 5 12 14 28 19 32 12 102 15 102 4z m-225
-22 c3 -5 0 -11 -7 -12 -51 -6 -76 -4 -98 8 -23 12 -21 13 37 14 34 0 65 -4
68 -10z m-2475 -564 c0 -2 -9 -6 -20 -9 -11 -3 -18 -1 -14 4 5 9 34 13 34 5z
m114 -34 c3 -5 -8 -9 -24 -10 -17 0 -30 4 -30 9 0 11 47 12 54 1z m-114 -11
c0 -9 -41 -23 -49 -16 -3 4 28 20 47 24 1 1 2 -3 2 -8z m2350 -131 c0 -5 -4
-10 -10 -10 -5 0 -10 5 -10 10 0 6 5 10 10 10 6 0 10 -4 10 -10z m-2120 -18
c0 -14 -52 -35 -99 -39 -56 -6 -47 12 17 31 55 17 82 19 82 8z m-293 -8 c-3
-3 -12 -4 -19 -1 -8 3 -5 6 6 6 11 1 17 -2 13 -5z m33 -24 c33 0 41 -3 30 -10
-19 -12 -150 -13 -150 -1 0 12 29 20 55 15 11 -2 40 -4 65 -4z m4545 -90 c3
-6 -1 -7 -9 -4 -18 7 -21 14 -7 14 6 0 13 -4 16 -10z m452 -36 c-10 -11 -91
-23 -102 -16 -5 4 6 10 25 13 49 9 84 10 77 3z m-239 -21 c-10 -2 -28 -2 -40
0 -13 2 -5 4 17 4 22 1 32 -1 23 -4z m-4373 -313 c3 -5 1 -10 -4 -10 -6 0 -11
5 -11 10 0 6 2 10 4 10 3 0 8 -4 11 -10z m-2906 -186 c2 -2 -7 -4 -22 -4 -14
0 -29 5 -32 10 -6 10 42 4 54 -6z m-202 -11 c-9 -9 -19 -14 -23 -11 -10 10 6
28 24 28 15 0 15 -1 -1 -17z m118 -13 c-3 -5 1 -10 9 -10 9 0 16 -4 16 -10 0
-5 -18 -10 -41 -10 -28 0 -39 4 -36 13 2 6 12 11 21 11 9 -1 16 2 16 7 0 5 5
9 11 9 5 0 7 -4 4 -10z m-105 -39 c-8 -5 -26 -12 -39 -16 -21 -6 -22 -5 -10 8
8 9 25 16 39 16 19 0 21 -2 10 -8z m5750 -113 c0 -18 -2 -20 -9 -8 -6 8 -7 18
-5 22 9 14 14 9 14 -14z m-660 -33 c0 -12 -19 -12 -23 0 -4 9 -1 12 9 8 7 -3
14 -7 14 -8z m-4853 -15 c-1 -15 -6 -18 -27 -14 -20 5 -22 3 -10 -6 13 -10 13
-11 -1 -7 -8 3 -34 2 -57 -3 -23 -4 -42 -6 -42 -4 0 5 62 36 90 45 40 12 49
10 47 -11z m2468 10 c3 -5 1 -10 -4 -10 -6 0 -11 5 -11 10 0 6 2 10 4 10 3 0
8 -4 11 -10z m4317 -46 c-6 -12 -9 -7 -9 16 0 23 3 28 9 16 5 -9 5 -23 0 -32z
m-1935 -6 c-3 -7 -5 -2 -5 12 0 14 2 19 5 13 2 -7 2 -19 0 -25z m-5082 3 c10
-17 -116 -26 -172 -12 -2 1 -3 6 -3 11 0 13 167 13 175 1z m3100 -1 c3 -5 1
-10 -4 -10 -6 0 -11 5 -11 10 0 6 2 10 4 10 3 0 8 -4 11 -10z m5005 3 c0 -5
-5 -15 -10 -23 -7 -12 -9 -10 -7 8 1 19 17 33 17 15z m-1130 -39 c0 -14 5 -35
11 -46 8 -15 8 -19 -1 -13 -9 5 -10 -5 -4 -41 3 -27 4 -46 0 -43 -10 9 -23
169 -14 169 4 0 8 -12 8 -26z m1117 -26 c-3 -8 -6 -5 -6 6 -1 11 2 17 5 13 3
-3 4 -12 1 -19z m-3070 -70 c-2 -18 -4 -6 -4 27 0 33 2 48 4 33 2 -15 2 -42 0
-60z m-4927 32 c0 -5 -5 -10 -11 -10 -5 0 -7 5 -4 10 3 6 8 10 11 10 2 0 4 -4
4 -10z m4997 -57 c-3 -10 -5 -4 -5 12 0 17 2 24 5 18 2 -7 2 -21 0 -30z m3126
-18 c0 -31 -43 -79 -95 -106 -55 -28 -55 -23 1 21 57 45 71 66 71 106 0 21 3
25 11 17 6 -6 12 -23 12 -38z m-3112 -107 c1 -32 0 -61 -4 -65 -4 -3 -7 24 -7
62 0 82 7 83 11 3z m666 -35 c-3 -10 -5 -4 -5 12 0 17 2 24 5 18 2 -7 2 -21 0
-30z m-660 -155 c-2 -18 -4 -6 -4 27 0 33 2 48 4 33 2 -15 2 -42 0 -60z m2863
47 c0 -8 -4 -15 -10 -15 -5 0 -10 7 -10 15 0 8 5 15 10 15 6 0 10 -7 10 -15z
m-203 -11 c-3 -3 -12 -4 -19 -1 -8 3 -5 6 6 6 11 1 17 -2 13 -5z m-1990 -86
c-3 -7 -5 -2 -5 12 0 14 2 19 5 13 2 -7 2 -19 0 -25z m-5627 18 c0 -3 -4 -8
-10 -11 -5 -3 -10 -1 -10 4 0 6 5 11 10 11 6 0 10 -2 10 -4z m4967 -93 c-2
-16 -4 -3 -4 27 0 30 2 43 4 28 2 -16 2 -40 0 -55z m-70 35 c-3 -7 -5 -2 -5
12 0 14 2 19 5 13 2 -7 2 -19 0 -25z m-4707 2 c0 -5 -4 -10 -10 -10 -5 0 -10
5 -10 10 0 6 5 10 10 10 6 0 10 -4 10 -10z m4717 -152 c-2 -13 -4 -5 -4 17 -1
22 1 32 4 23 2 -10 2 -28 0 -40z m-117 28 c0 -3 -16 -21 -35 -42 -43 -46 -46
-38 -4 11 29 33 39 41 39 31z m-5060 -32 c0 -8 -5 -12 -10 -9 -6 4 -8 11 -5
16 9 14 15 11 15 -7z m5247 -21 c-3 -10 -5 -4 -5 12 0 17 2 24 5 18 2 -7 2
-21 0 -30z m660 -5 c-3 -8 -6 -5 -6 6 -1 11 2 17 5 13 3 -3 4 -12 1 -19z
m-3091 -184 c18 -129 48 -361 60 -474 2 -19 9 -75 14 -124 6 -49 8 -91 5 -94
-3 -3 -5 -1 -5 4 0 5 -16 131 -35 279 -19 149 -41 324 -50 390 -8 66 -20 130
-25 143 -13 30 -13 35 3 30 7 -3 20 -59 33 -154z m494 146 c-8 -5 -24 -9 -35
-9 l-20 0 20 9 c11 5 27 9 35 9 13 1 13 0 0 -9z m-556 -39 c-6 -6 -24 19 -24
34 1 6 7 1 15 -9 8 -11 12 -22 9 -25z m75 -18 c-1 -65 -5 -61 -12 10 -2 26 -1
47 4 47 5 0 9 -26 8 -57z m2358 35 c-3 -8 -6 -5 -6 6 -1 11 2 17 5 13 3 -3 4
-12 1 -19z m934 -25 c-9 -15 -10 -12 -10 17 0 29 1 32 10 18 7 -12 7 -24 0
-35z m-2874 31 c-3 -3 -12 -4 -19 -1 -8 3 -5 6 6 6 11 1 17 -2 13 -5z m-2627
-14 c0 -5 -5 -10 -11 -10 -5 0 -7 5 -4 10 3 6 8 10 11 10 2 0 4 -4 4 -10z
m2460 -11 c0 -12 -109 -10 -135 1 -14 6 5 9 58 8 42 0 77 -5 77 -9z m-323 -31
c-3 -8 -6 -5 -6 6 -1 11 2 17 5 13 3 -3 4 -12 1 -19z m3508 -50 c16 -12 -26
-59 -83 -91 -29 -16 -55 -27 -58 -24 -3 2 18 21 46 41 54 39 72 69 64 107 -4
24 -4 24 8 -1 7 -14 17 -28 23 -32z m-3498 -10 c-3 -7 -5 -2 -5 12 0 14 2 19
5 13 2 -7 2 -19 0 -25z m87 -123 c3 -31 3 -42 -3 -30 -4 11 -11 52 -14 90 -6
75 5 34 17 -60z m2976 49 c0 -8 -4 -12 -10 -9 -5 3 -10 10 -10 16 0 5 5 9 10
9 6 0 10 -7 10 -16z m-914 -99 c22 -30 24 -35 8 -25 -32 20 -64 73 -64 106 1
29 1 29 14 -7 7 -20 26 -53 42 -74z m881 79 c-3 -3 -12 -4 -19 -1 -8 3 -5 6 6
6 11 1 17 -2 13 -5z m-40 -10 c-3 -3 -12 -4 -19 -1 -8 3 -5 6 6 6 11 1 17 -2
13 -5z m-2777 -124 c0 -5 -9 -10 -21 -10 -11 0 -17 5 -14 10 3 6 13 10 21 10
8 0 14 -4 14 -10z m2904 -14 c-3 -8 -1 -17 5 -20 6 -4 8 -13 4 -21 -3 -9 1
-15 11 -15 9 0 16 -4 16 -10 0 -5 -11 -10 -25 -10 -17 0 -29 8 -37 25 -7 16
-19 25 -34 25 -21 0 -21 -1 7 -31 28 -30 30 -49 6 -49 -7 0 -24 16 -40 35 -24
30 -30 33 -53 25 -38 -15 -43 -11 -9 7 35 19 125 52 142 53 7 0 10 -6 7 -14z
m-2997 -83 c-3 -10 -5 -2 -5 17 0 19 2 27 5 18 2 -10 2 -26 0 -35z m10 -65
c-3 -7 -5 -2 -5 12 0 14 2 19 5 13 2 -7 2 -19 0 -25z m-2647 -44 c0 -17 -22
-14 -28 4 -2 7 3 12 12 12 9 0 16 -7 16 -16z m2657 -36 c-3 -8 -6 -5 -6 6 -1
11 2 17 5 13 3 -3 4 -12 1 -19z m3974 3 c13 -11 21 -22 18 -26 -4 -3 -15 2
-25 12 -9 10 -21 18 -25 18 -4 0 -11 3 -15 8 -16 16 25 6 47 -12z m-468 -76
c-5 -34 -7 -36 -14 -16 -6 13 -4 29 3 41 16 26 19 21 11 -25z m-6023 -5 c-14
-10 -27 -16 -30 -13 -6 6 30 33 44 33 6 0 0 -9 -14 -20z m3439 -79 c1 -35 -5
-22 -12 24 -5 28 -4 34 3 20 5 -11 9 -31 9 -44z m2911 10 c0 -13 -37 -24 -50
-16 -6 4 -8 11 -5 16 8 12 55 12 55 0z m-3996 -43 c-4 -18 -7 -41 -6 -50 0
-10 -3 -18 -9 -18 -12 0 -12 42 1 74 14 37 23 32 14 -6z m4016 12 c-8 -5 -22
-9 -30 -9 -10 0 -8 3 5 9 27 12 43 12 25 0z m-2920 -57 c0 -32 -5 -28 -14 10
-4 19 -3 26 4 22 5 -3 10 -18 10 -32z m-930 -33 c0 -5 -2 -10 -4 -10 -3 0 -8
5 -11 10 -3 6 -1 10 4 10 6 0 11 -4 11 -10z m-2218 -86 c-23 -14 -48 -24 -55
-21 -7 2 -34 -2 -62 -9 -27 -8 -57 -13 -65 -13 -8 0 25 11 73 25 49 13 96 28
105 34 9 5 24 9 32 10 8 0 -4 -12 -28 -26z m1960 -34 c4 -45 -7 -41 -17 8 -4
19 -3 32 3 32 6 0 12 -18 14 -40z m-2418 9 c5 -5 6 -12 1 -16 -4 -5 -10 -2
-12 5 -4 10 -33 19 -33 10 0 -15 26 -145 55 -283 56 -266 86 -408 90 -435 3
-14 9 -43 14 -65 7 -27 7 -41 0 -44 -6 -2 -3 -11 7 -22 23 -26 12 -34 -14 -12
-18 15 -36 85 -107 423 -47 223 -89 418 -95 433 l-9 28 47 -7 c26 -3 51 -10
56 -15z m3746 0 c0 -24 -122 -111 -136 -96 -2 2 13 16 35 30 22 15 48 38 58
51 18 26 43 34 43 15z m-563 -15 c-3 -3 -12 -4 -19 -1 -8 3 -5 6 6 6 11 1 17
-2 13 -5z m-3051 -12 c-5 -8 -66 -4 -66 4 0 2 16 4 36 4 19 0 33 -4 30 -8z
m6414 -32 c0 -5 -12 -10 -27 -9 l-28 1 25 8 c14 4 26 8 28 9 1 1 2 -3 2 -9z
m-6642 -95 c0 -16 -2 -15 -8 5 -11 34 -11 60 0 35 5 -11 8 -29 8 -40z m6033
38 c13 -16 12 -17 -3 -4 -10 7 -18 15 -18 17 0 8 8 3 21 -13z m-2641 -53 c0
-5 -4 -10 -10 -10 -5 0 -10 5 -10 10 0 6 5 10 10 10 6 0 10 -4 10 -10z m3300
-10 c0 -5 -4 -10 -10 -10 -5 0 -10 5 -10 10 0 6 5 10 10 10 6 0 10 -4 10 -10z
m-6683 -22 c-3 -8 -6 -5 -6 6 -1 11 2 17 5 13 3 -3 4 -12 1 -19z m3486 -20
c-11 -18 -10 -32 2 -40 6 -5 6 -8 -2 -8 -7 0 -13 -6 -13 -14 0 -8 6 -16 13
-19 9 -3 7 -10 -6 -23 -18 -19 -20 -18 -56 24 -20 23 -40 42 -44 42 -9 0 33
-63 45 -68 18 -8 6 -20 -32 -32 -22 -7 -40 -17 -40 -22 0 -4 -7 -8 -16 -8 -11
0 -14 5 -10 16 5 12 2 15 -10 10 -13 -5 -15 -2 -11 14 3 11 1 20 -4 20 -5 0
-9 7 -9 15 0 13 -8 15 -37 10 l-38 -5 35 16 c38 18 220 83 233 84 5 0 5 -6 0
-12z m-823 -138 c0 -5 -4 -10 -10 -10 -5 0 -10 5 -10 10 0 6 5 10 10 10 6 0
10 -4 10 -10z m1967 -31 c60 -47 65 -67 6 -25 -69 48 -89 66 -74 66 8 0 38
-19 68 -41z m-1667 10 c-26 -11 -164 -23 -144 -14 11 6 120 22 154 23 8 0 4
-4 -10 -9z m110 -79 c0 -5 -4 -10 -10 -10 -5 0 -10 5 -10 10 0 6 5 10 10 10 6
0 10 -4 10 -10z m1571 -64 c0 -5 -24 -17 -53 -27 -82 -26 -282 -105 -306 -120
-16 -10 -24 -11 -33 -2 -15 15 -2 35 19 31 17 -2 94 24 142 49 14 7 30 13 35
13 6 0 48 16 95 35 84 34 102 38 101 21z m-3477 -110 c9 -19 16 -45 16 -58 0
-13 4 -38 10 -57 5 -19 6 -40 1 -49 -6 -10 -11 9 -16 54 -4 38 -15 86 -25 107
-10 20 -15 37 -10 37 4 0 15 -15 24 -34z m3491 -164 c-17 -14 -65 -32 -65 -24
0 5 12 13 28 19 34 14 49 16 37 5z m-695 -16 c0 -2 -7 -9 -15 -16 -13 -11 -14
-10 -9 4 5 14 24 23 24 12z m440 -86 c-8 -5 -19 -10 -25 -10 -5 0 -3 5 5 10 8
5 20 10 25 10 6 0 3 -5 -5 -10z m-3050 -19 c0 -25 -122 -132 -135 -119 -2 2
21 26 51 54 30 27 57 48 59 46 3 -3 7 3 11 12 7 18 14 21 14 7z m2400 -11 c0
-5 -4 -10 -10 -10 -5 0 -10 5 -10 10 0 6 5 10 10 10 6 0 10 -4 10 -10z m-3790
-71 c0 -5 -4 -9 -10 -9 -5 0 -10 7 -10 16 0 8 5 12 10 9 6 -3 10 -10 10 -16z
m935 -29 c3 -5 1 -10 -4 -10 -6 0 -11 5 -11 10 0 6 2 10 4 10 3 0 8 -4 11 -10z
m-457 -7 c-10 -2 -26 -2 -35 0 -10 3 -2 5 17 5 19 0 27 -2 18 -5z m612 -108
c0 -4 -65 -35 -104 -49 -14 -5 -17 -12 -11 -29 24 -78 13 -93 -69 -95 -37 -2
-47 1 -36 8 13 9 13 10 0 10 -13 0 -13 1 0 11 12 9 10 10 -8 6 -18 -4 -22 -2
-18 10 4 11 2 13 -9 10 -8 -4 -17 -2 -20 2 -6 10 35 30 165 82 97 39 110 43
110 34z m-40 -79 c0 -39 -20 -61 -21 -24 0 13 -2 31 -4 41 -2 9 3 17 11 17 9
0 14 -11 14 -34z m1256 -81 c20 -19 35 -38 32 -41 -3 -3 -19 8 -35 23 -16 15
-38 33 -48 40 -17 10 -17 12 -3 12 9 1 33 -15 54 -34z m-487 -91 c-12 -24 -18
-49 -15 -67 4 -17 2 -26 -4 -22 -22 14 -8 86 24 121 18 20 17 10 -5 -32z
m-1399 21 c-30 -8 -62 -14 -70 -14 -24 1 72 27 100 27 14 0 0 -6 -30 -13z
m1736 -90 c-11 -8 -22 -12 -25 -9 -6 6 19 24 34 24 6 -1 1 -7 -9 -15z m-16
-36 c0 -6 7 -8 16 -5 8 3 12 2 9 -4 -3 -6 -17 -10 -31 -10 -23 0 -31 10 -17
23 10 11 23 8 23 -4z m80 -15 c0 -7 -66 -34 -82 -33 -7 0 5 9 27 20 42 19 55
23 55 13z m1677 0 c-3 -3 -12 -4 -19 -1 -8 3 -5 6 6 6 11 1 17 -2 13 -5z m-57
-14 c0 -5 -5 -10 -11 -10 -5 0 -7 5 -4 10 3 6 8 10 11 10 2 0 4 -4 4 -10z
m-2107 -27 c-7 -2 -19 -2 -25 0 -7 3 -2 5 12 5 14 0 19 -2 13 -5z m-2374 -827
c-3 -3 -11 5 -18 17 -13 21 -12 21 5 5 10 -10 16 -20 13 -22z m1831 -116 c0
-5 -4 -10 -10 -10 -5 0 -10 5 -10 10 0 6 5 10 10 10 6 0 10 -4 10 -10z m-60
-39 c0 -6 -4 -13 -10 -16 -5 -3 -10 1 -10 9 0 9 5 16 10 16 6 0 10 -4 10 -9z
m110 -97 c0 -8 -4 -14 -10 -14 -5 0 -10 9 -10 21 0 11 5 17 10 14 6 -3 10 -13
10 -21z m-68 -26 c-7 -7 -12 -8 -12 -2 0 14 12 26 19 19 2 -3 -1 -11 -7 -17z
m53 -38 c3 -5 1 -10 -4 -10 -6 0 -11 5 -11 10 0 6 2 10 4 10 3 0 8 -4 11 -10z
m-2819 -77 c11 -25 13 -43 6 -57 -9 -20 -9 -20 -21 3 -11 19 -11 22 0 15 7 -4
3 7 -10 24 -21 30 -21 52 0 52 6 0 17 -16 25 -37z m2798 8 c3 -5 -9 -11 -28
-13 -24 -3 -32 0 -29 9 6 15 49 18 57 4z m-2711 -107 c-9 -23 -23 -16 -23 12
0 22 2 24 14 14 8 -6 12 -18 9 -26z m-33 4 c0 -4 -7 -8 -15 -8 -8 0 -15 4 -15
8 0 5 7 9 15 9 8 0 15 -4 15 -9z m8 -31 c6 -5 12 -14 12 -20 0 -8 -3 -7 -9 2
-7 11 -9 11 -13 0 -3 -10 -8 -8 -16 8 -12 22 -2 27 26 10z m1087 -37 c-3 -5
-13 -10 -21 -10 -8 0 -12 5 -9 10 3 6 13 10 21 10 8 0 12 -4 9 -10z m-1052
-33 c-7 -11 -23 2 -23 19 0 12 2 12 14 2 8 -7 12 -16 9 -21z m37 -43 c0 -8 -4
-12 -10 -9 -5 3 -10 10 -10 16 0 5 5 9 10 9 6 0 10 -7 10 -16z m570 -103 c0
-5 -14 -14 -31 -20 -39 -13 -39 -13 -39 -1 0 6 11 10 24 10 14 0 28 5 31 10 8
12 15 13 15 1z m-118 -53 c-7 -7 -12 -8 -12 -2 0 14 12 26 19 19 2 -3 -1 -11
-7 -17z m-28 -13 c-4 -8 -12 -15 -19 -15 -7 0 -26 -6 -42 -14 -55 -27 -123
-56 -123 -52 0 3 -3 11 -6 20 -4 11 -1 16 11 16 9 0 31 7 48 15 42 19 109 43
124 44 7 1 10 -6 7 -14z m986 -85 c0 -5 -4 -10 -10 -10 -5 0 -10 5 -10 10 0 6
5 10 10 10 6 0 10 -4 10 -10z m-1160 -100 c-8 -6 -22 -10 -30 -10 -8 0 -4 6
10 13 27 15 44 12 20 -3z m40 -110 c0 -5 -9 -10 -21 -10 -11 0 -29 -5 -41 -11
-11 -6 -22 -8 -25 -5 -6 5 54 34 75 35 6 1 12 -3 12 -9z"/>
<path d="M6855 7271 c-67 -19 -110 -40 -101 -48 3 -4 16 -1 29 5 25 12 132 49
162 55 15 4 14 5 -5 5 -14 0 -52 -7 -85 -17z"/>
<path d="M6958 7269 c-60 -9 -138 -42 -138 -59 0 -6 5 -10 10 -10 6 0 10 -5
10 -11 0 -5 -4 -7 -10 -4 -5 3 -10 1 -10 -5 0 -38 172 -53 269 -23 51 15 85
42 63 50 -10 4 -9 9 4 24 16 18 15 19 -8 28 -38 14 -127 19 -190 10z m105 -36
c-7 -2 -21 -2 -30 0 -10 3 -4 5 12 5 17 0 24 -2 18 -5z m-118 -13 c-28 -12
-37 -12 -30 0 3 6 16 10 28 9 21 0 21 -1 2 -9z"/>
<path d="M7195 7210 c-7 -12 12 -12 40 0 18 8 17 9 -7 9 -15 1 -30 -3 -33 -9z"/>
<path d="M7145 7160 c-3 -5 -1 -10 4 -10 6 0 11 5 11 10 0 6 -2 10 -4 10 -3 0
-8 -4 -11 -10z"/>
<path d="M4625 6520 c-3 -5 -1 -10 4 -10 6 0 11 5 11 10 0 6 -2 10 -4 10 -3 0
-8 -4 -11 -10z"/>
<path d="M4294 6446 c-10 -8 -17 -17 -14 -19 3 -3 16 3 30 13 29 22 14 27 -16
6z"/>
<path d="M4741 6441 c-9 -16 -8 -18 9 -14 21 6 26 18 11 28 -6 3 -15 -3 -20
-14z"/>
<path d="M4695 6420 c-3 -5 -1 -10 4 -10 6 0 11 5 11 10 0 6 -2 10 -4 10 -3 0
-8 -4 -11 -10z"/>
<path d="M4270 6379 c0 -5 5 -7 10 -4 6 3 10 8 10 11 0 2 -4 4 -10 4 -5 0 -10
-5 -10 -11z"/>
<path d="M4580 6350 c-12 -8 -9 -10 13 -10 15 0 27 5 27 10 0 13 -20 13 -40 0z"/>
<path d="M1527 5489 c7 -7 15 -10 18 -7 3 3 -2 9 -12 12 -14 6 -15 5 -6 -5z"/>
<path d="M8289 4616 c-3 -3 -33 -7 -68 -10 -68 -5 -87 -15 -78 -40 18 -47 188
-47 204 -1 6 20 -44 64 -58 51z m-69 -36 c-8 -5 -22 -10 -30 -10 -13 0 -13 1
0 10 8 5 22 10 30 10 13 0 13 -1 0 -10z m15 -30 c-27 -12 -35 -12 -35 0 0 6
12 10 28 9 24 0 25 -1 7 -9z"/>
<path d="M8357 4509 c7 -7 15 -10 18 -7 3 3 -2 9 -12 12 -14 6 -15 5 -6 -5z"/>
<path d="M8230 4480 c0 -5 6 -10 14 -10 8 0 18 5 21 10 3 6 -3 10 -14 10 -12
0 -21 -4 -21 -10z"/>
<path d="M4382 4045 c0 -16 2 -22 5 -12 2 9 2 23 0 30 -3 6 -5 -1 -5 -18z"/>
<path d="M2571 3944 c0 -11 3 -14 6 -6 3 7 2 16 -1 19 -3 4 -6 -2 -5 -13z"/>
<path d="M3738 2935 c-3 -3 -21 -7 -39 -9 -94 -9 -119 -18 -125 -43 -13 -49
58 -76 139 -54 66 19 88 40 79 76 -8 28 -38 45 -54 30z m-11 -31 c-3 -3 -12
-4 -19 -1 -8 3 -5 6 6 6 11 1 17 -2 13 -5z m-82 -14 c-28 -12 -37 -12 -30 0 3
6 16 10 28 9 21 0 21 -1 2 -9z m6 -25 c-43 -19 -62 -19 -37 0 11 8 31 15 45
15 24 -1 24 -2 -8 -15z m19 -19 c0 -2 -7 -6 -15 -10 -8 -3 -15 -1 -15 4 0 6 7
10 15 10 8 0 15 -2 15 -4z"/>
<path d="M3683 2783 c-7 -2 -13 -9 -13 -15 0 -12 41 -6 41 7 1 12 -11 15 -28
8z"/>
<path d="M170 831 c5 -11 15 -23 21 -27 6 -3 3 5 -6 20 -20 30 -30 35 -15 7z"/>
</g>
</svg>
